# xmcd
#
# Track frame offsets:
#  150
#  14335
#  28493
#  41573
#  62344
#  77960
#  95177
#  110637
#  124234
#  140496
#
# Disc length: 2110 seconds
#
# Revision: 0
# Processed by: cddbd v1.5.1PL2 Copyright (c) Steve Scherf et al.
# Submitted via: Collectorz.com_Music_Collector 6.11
#
DISCID=8f083c0a
DTITLE=Beatlegras - beatlegrass
DYEAR=2006
DGENRE=bluegrass - BritPop
TTITLE0=Back in the U.S.S.R.
TTITLE1=She Came in Through the Bathroom Window
TTITLE2=Mother Nature's Son
TTITLE3=Come Together
TTITLE4=Lady Madonna
TTITLE5=Drive My Car
TTITLE6=Blackbird
TTITLE7=Hay Bulldog
TTITLE8=In My Life
TTITLE9=Norwegian Wood
EXTD=
EXTT0=
EXTT1=
EXTT2=
EXTT3=
EXTT4=
EXTT5=
EXTT6=
EXTT7=
EXTT8=
EXTT9=
PLAYORDER=
